<?xml version="1.0" ?>
<!DOCTYPE svg  PUBLIC '-//W3C//DTD SVG 1.1//EN'  'http://www.w3.org/Graphics/SVG/1.1/DTD/svg11.dtd'>
<!-- Uploaded to: SVG Repo, www.svgrepo.com, Generator: SVG Repo Mixer Tools -->
<svg fill="#000000" width="800px" height="800px" viewBox="0 0 2.33333 2.33333" style="shape-rendering:geometricPrecision; text-rendering:geometricPrecision; image-rendering:optimizeQuality; fill-rule:evenodd; clip-rule:evenodd" xml:space="preserve" xmlns="http://www.w3.org/2000/svg" xmlns:xlink="http://www.w3.org/1999/xlink">
<defs>
<style type="text/css">
   <![CDATA[
    .fil0 {fill:black}
   ]]>
  </style>
</defs>
<g id="Layer_x0020_1">
<path class="fil0" d="M0.374433 1.87974c-0.0141811,0 -0.0248543,-0.0147638 -0.0194409,-0.0277717l0.0666575 -0.154142c-0.188004,-0.228657 -0.0254646,-0.565185 0.263846,-0.565185 0.188858,0 0.343,0.154142 0.343,0.343 0,0.247598 -0.254665,0.418244 -0.487421,0.312449l-0.155528 0.088874c-0.00416929,0.00138976 -0.00833465,0.00277559 -0.0111142,0.00277559zm0.088874 -0.173583l-0.0472126 0.106929 0.111094 -0.063878c0.00762598,-0.00409843 0.0159724,-0.00402362 0.0249961,0.00138976 0.0416614,0.0194409 0.0860984,0.0305512 0.131921,0.0305512 0.166642,0 0.302728,-0.136091 0.302728,-0.304118 0,-0.166638 -0.136087,-0.302728 -0.302728,-0.302728 -0.168024,0 -0.304114,0.136091 -0.304114,0.302728 0,0.0749882 0.0277756,0.147201 0.0791535,0.202744 0.00971654,0.0101024 0.00660236,0.0239488 0.00416142,0.0263819zm0.0652677 0.0749921c0,0 0,0 0,0zm-0.0972047 -0.0749921c0,0.00138976 0,0.00138976 0,0 0,0.00138976 0,0.00138976 0,0z"/>
<path class="fil0" d="M0.843803 1.39232l-0.318004 0c-0.0111102,0 -0.0194409,-0.00833071 -0.0194409,-0.0194409 0,-0.0111102 0.00833071,-0.0194409 0.0194409,-0.0194409l0.316614 0c0.0111102,0 0.0194409,0.00833071 0.0194409,0.0194409 0,0.0111102 -0.00833071,0.0194409 -0.0180512,0.0194409z"/>
<path class="fil0" d="M0.911846 1.49647l-0.454094 0c-0.0111063,0 -0.019437,-0.00833071 -0.019437,-0.0194409 0,-0.0111102 0.00833071,-0.0194409 0.019437,-0.0194409l0.454094 -3.93701e-006c0.0111102,0 0.0194409,0.00833071 0.0194409,0.0194409 0,0.0111102 -0.00833071,0.0194449 -0.0194409,0.0194449z"/>
<path class="fil0" d="M0.843803 1.60062l-0.318004 0c-0.0111102,0 -0.0194409,-0.00833465 -0.0194409,-0.0194409 0,-0.0111102 0.00833071,-0.0194409 0.0194409,-0.0194409l0.316614 0c0.0111102,0 0.0194409,0.00833071 0.0194409,0.0194409 0,0.0111063 -0.00833071,0.0194409 -0.0180512,0.0194409z"/>
<path class="fil0" d="M1.9714 1.59923l-0.833201 0c-0.0257717,0 -0.0257717,-0.0388819 0,-0.0388819l0.833201 -3.93701e-006c0.0257756,0 0.0257677,0.0388858 0,0.0388858z"/>
<path class="fil0" d="M1.1382 1.59923c-0.021126,0 -0.0262008,-0.0278622 -0.00972047,-0.0374961l0.24163 -0.144421c0.0235118,-0.0137441 0.0433583,0.0215866 0.0208307,0.0347205l-0.243016 0.144421c-0.00277953,0.00138583 -0.00694488,0.00277559 -0.00972441,0.00277559z"/>
<path class="fil0" d="M1.98667 1.20069c-0.00277559,0 -0.00694094,-0.00138583 -0.00972047,-0.00277559l-0.156917 -0.088874c-0.232736,0.105795 -0.487421,-0.0648346 -0.487421,-0.312449 0,-0.188858 0.154142,-0.343 0.343,-0.343 0.287768,0 0.453657,0.335122 0.262457,0.566575l0.0666575 0.152756c0.00575591,0.0149921 -0.00729921,0.0277677 -0.0180551,0.0277677zm-0.165248 -0.134701c0.00277559,0 0.00694094,0.00138976 0.00972047,0.00277953l0.11248 0.063878 -0.0472126 -0.108315c-0.00510236,-0.0109134 -3.54331e-005,-0.018937 0.00694094,-0.0263858 0.0499921,-0.056937 0.076378,-0.12776 0.076378,-0.201358 0,-0.166638 -0.136091,-0.302728 -0.304118,-0.302728 -0.166638,0 -0.302728,0.136091 -0.302728,0.302728 0,0.168028 0.136091,0.304118 0.302728,0.304118 0.0922283,0 0.127606,-0.0347165 0.145811,-0.0347165zm0.0111063 0.0347205c0,0 0,0 0,0zm0.0833228 -0.0666575l0 0z"/>
<path class="fil0" d="M1.83531 0.711878l-0.318004 0c-0.0111102,0 -0.0194409,-0.00833071 -0.0194409,-0.0194409 0,-0.0111102 0.00833071,-0.0194409 0.0194409,-0.0194409l0.316618 0c0.0111102,0 0.0194409,0.00833071 0.0194409,0.0194409 0,0.0111102 -0.00694488,0.0194409 -0.0180551,0.0194409z"/>
<path class="fil0" d="M1.90335 0.816028l-0.454091 0c-0.0111102,0 -0.0194409,-0.00833071 -0.0194409,-0.0194409 0,-0.0111102 0.00833071,-0.0194409 0.0194409,-0.0194409l0.454091 -3.93701e-006c0.0111102,0 0.0194409,0.00833071 0.0194409,0.0194409 0,0.0111102 -0.00833071,0.0194449 -0.0194409,0.0194449z"/>
<path class="fil0" d="M1.83531 0.921567l-0.318004 0c-0.0111102,0 -0.0194409,-0.00833071 -0.0194409,-0.0194409 0,-0.0111102 0.00833071,-0.0194409 0.0194409,-0.0194409l0.316618 -3.93701e-006c0.0111102,0 0.0194409,0.00833071 0.0194409,0.0194409 0,0.0111102 -0.00694488,0.0194449 -0.0180551,0.0194449z"/>
<path class="fil0" d="M1.16597 0.774366l-0.833197 0c-0.0257756,0 -0.0257756,-0.038878 0,-0.038878l0.833197 -3.93701e-006c0.0257756,0 0.0257717,0.0388819 0,0.0388819z"/>
<path class="fil0" d="M0.924346 0.918787c-0.0211299,0 -0.0262047,-0.0278622 -0.00972441,-0.0374961l0.24163 -0.144421c0.0235157,-0.0137441 0.0433583,0.0215866 0.0208307,0.0347205l-0.243016 0.144421c-0.00277953,0.00277559 -0.00694488,0.00277559 -0.00972047,0.00277559z"/>
</g>
</svg>